<?xml version="1.0" encoding="utf-8"?>
<!-- Generator: Adobe Illustrator 16.0.0, SVG Export Plug-In . SVG Version: 6.00 Build 0)  -->
<!DOCTYPE svg PUBLIC "-//W3C//DTD SVG 1.1//EN" "http://www.w3.org/Graphics/SVG/1.1/DTD/svg11.dtd">
<svg version="1.1" id="Layer_1" xmlns="http://www.w3.org/2000/svg" xmlns:xlink="http://www.w3.org/1999/xlink" x="0px" y="0px"
	 width="24px" height="21px" viewBox="0 0 24 21" enable-background="new 0 0 24 21" xml:space="preserve">
<g>
	<defs>
		<rect id="SVGID_1_" width="24" height="21"/>
	</defs>
	<clipPath id="SVGID_2_">
		<use xlink:href="#SVGID_1_"  overflow="visible"/>
	</clipPath>
	<path clip-path="url(#SVGID_2_)" fill="#FFFFFF" d="M13.5,0C8.212,0,3.851,3.914,3.123,9H0l4,5.917L8,9H5.153
		C5.864,5.028,9.327,2,13.5,2c4.687,0,8.5,3.813,8.5,8.5c0,4.687-3.813,8.5-8.5,8.5c-3.015,0-5.662-1.583-7.171-3.957l-1.2,1.775
		C7.045,19.354,10.077,21,13.5,21C19.297,21,24,16.298,24,10.5S19.297,0,13.5,0"/>
</g>
</svg>
