<?xml version="1.0" encoding="utf-8"?>
<!-- Generator: Adobe Illustrator 16.0.0, SVG Export Plug-In . SVG Version: 6.00 Build 0)  -->
<!DOCTYPE svg PUBLIC "-//W3C//DTD SVG 1.1//EN" "http://www.w3.org/Graphics/SVG/1.1/DTD/svg11.dtd">
<svg version="1.1" id="Layer_1" xmlns="http://www.w3.org/2000/svg" xmlns:xlink="http://www.w3.org/1999/xlink" x="0px" y="0px"
	 width="40.88px" height="41.786px" viewBox="0 0 40.88 41.786" enable-background="new 0 0 40.88 41.786" xml:space="preserve">
<g>
	<defs>
		<rect id="SVGID_1_" y="0" width="40.88" height="41.786"/>
	</defs>
	<clipPath id="SVGID_2_">
		<use xlink:href="#SVGID_1_"  overflow="visible"/>
	</clipPath>
	
		<path clip-path="url(#SVGID_2_)" fill="none" stroke="#111111" stroke-width="2" stroke-linecap="round" stroke-linejoin="round" stroke-miterlimit="10" d="
		M31.601,39.022c-5.126,4.317-15.5,0.435-23.173-8.675C0.755,21.239-1.309,10.355,3.817,6.039"/>
	
		<path clip-path="url(#SVGID_2_)" fill="none" stroke="#111111" stroke-width="2" stroke-linecap="round" stroke-linejoin="round" stroke-miterlimit="10" d="
		M4.327,5.608c1.515-1.276,4.581-0.128,6.849,2.563c2.267,2.692,2.878,5.909,1.363,7.185l-3.653,1.188c0,0,1.623,5.267,4.965,9.235"
		/>
	
		<path clip-path="url(#SVGID_2_)" fill="none" stroke="#111111" stroke-width="2" stroke-linecap="round" stroke-linejoin="round" stroke-miterlimit="10" d="
		M32.11,38.592c1.517-1.275,0.905-4.492-1.361-7.185c-2.269-2.692-5.334-3.839-6.85-2.563l-1.791,3.396c0,0-4.915-2.494-8.258-6.462
		"/>
	
		<path clip-path="url(#SVGID_2_)" fill="none" stroke="#111111" stroke-width="2" stroke-linecap="round" stroke-linejoin="round" stroke-miterlimit="10" d="
		M17.45,22.872c0.153,0.153,0.359,0.235,0.569,0.235c0.082,0,0.165-0.011,0.246-0.038l4.885-1.571c1.662,1.003,3.61,1.58,5.692,1.58
		c6.096,0,11.039-4.941,11.039-11.039S34.938,1,28.842,1c-6.098,0-11.038,4.942-11.038,11.039c0,1.735,0.401,3.376,1.114,4.837
		l-1.665,5.181C17.16,22.344,17.236,22.658,17.45,22.872z"/>
	<path clip-path="url(#SVGID_2_)" fill="#111111" d="M24.561,10.894c-0.693,0-1.258,0.563-1.258,1.258
		c0,0.695,0.564,1.258,1.258,1.258c0.695,0,1.259-0.563,1.259-1.258C25.819,11.457,25.256,10.894,24.561,10.894"/>
	<path clip-path="url(#SVGID_2_)" fill="#231815" d="M29.173,10.894c-0.694,0-1.258,0.563-1.258,1.258
		c0,0.695,0.563,1.258,1.258,1.258s1.258-0.563,1.258-1.258C30.431,11.457,29.867,10.894,29.173,10.894"/>
	<path clip-path="url(#SVGID_2_)" fill="#231815" d="M33.784,10.894c-0.693,0-1.258,0.563-1.258,1.258
		c0,0.695,0.564,1.258,1.258,1.258c0.694,0,1.259-0.563,1.259-1.258C35.043,11.457,34.479,10.894,33.784,10.894"/>
</g>
</svg>
