<?xml version="1.0" encoding="utf-8"?>
<!-- Generator: Adobe Illustrator 16.0.0, SVG Export Plug-In . SVG Version: 6.00 Build 0)  -->
<!DOCTYPE svg PUBLIC "-//W3C//DTD SVG 1.1//EN" "http://www.w3.org/Graphics/SVG/1.1/DTD/svg11.dtd">
<svg version="1.1" id="Layer_1" xmlns="http://www.w3.org/2000/svg" xmlns:xlink="http://www.w3.org/1999/xlink" x="0px" y="0px"
	 width="55px" height="44.499px" viewBox="0 0 55 44.499" enable-background="new 0 0 55 44.499" xml:space="preserve">
<g>
	<defs>
		<rect id="SVGID_1_" width="55" height="44.499"/>
	</defs>
	<clipPath id="SVGID_2_">
		<use xlink:href="#SVGID_1_"  overflow="visible"/>
	</clipPath>
	<path clip-path="url(#SVGID_2_)" fill="#111111" d="M10.749,15.678c0-0.683-0.553-1.236-1.236-1.236
		c-0.683,0-1.237,0.553-1.237,1.236c0,0.684,0.554,1.236,1.237,1.236C10.196,16.914,10.749,16.362,10.749,15.678"/>
	<path clip-path="url(#SVGID_2_)" fill="#111111" d="M48.063,15.678c0-0.683-0.554-1.236-1.236-1.236
		c-0.684,0-1.236,0.553-1.236,1.236c0,0.684,0.553,1.236,1.236,1.236C47.509,16.914,48.063,16.362,48.063,15.678"/>
	
		<path clip-path="url(#SVGID_2_)" fill="none" stroke="#111111" stroke-width="2" stroke-linecap="round" stroke-linejoin="round" stroke-miterlimit="10" d="
		M17.548,1l6.898,7.417c0.108,0.12,0.078,0.326-0.069,0.464L9.446,22.582c-0.148,0.135-0.357,0.148-0.466,0.029L1,14.113"/>
	
		<path clip-path="url(#SVGID_2_)" fill="none" stroke="#111111" stroke-width="2" stroke-linecap="round" stroke-linejoin="round" stroke-miterlimit="10" d="
		M38.533,1l-6.898,7.417c-0.107,0.12-0.077,0.326,0.07,0.464l14.93,13.701c0.148,0.135,0.358,0.148,0.467,0.029L54,15.194"/>
	
		<path clip-path="url(#SVGID_2_)" fill="none" stroke="#111111" stroke-width="2" stroke-linecap="round" stroke-linejoin="round" stroke-miterlimit="10" d="
		M27.445,12.809c-1.526-1.138-3.155-1.944-4.751-2.394"/>
	
		<path clip-path="url(#SVGID_2_)" fill="none" stroke="#111111" stroke-width="2" stroke-linecap="round" stroke-linejoin="round" stroke-miterlimit="10" d="
		M26.463,40.303l2.359,2.359c1.063,1.063,2.729,1.121,3.721,0.13c0.992-0.992,0.935-2.658-0.13-3.722
		c1.064,1.063,2.73,1.121,3.722,0.13c0.992-0.991,0.935-2.657-0.13-3.721c1.064,1.063,2.729,1.121,3.721,0.13
		c0.992-0.992,0.935-2.657-0.13-3.721c1.064,1.063,2.729,1.121,3.722,0.13c0.991-0.992,0.934-2.658-0.131-3.723l-7.772-7.772
		c-0.104-0.105-0.218-0.191-0.334-0.277c-0.25-0.286-0.511-0.567-0.785-0.842l-2.276-2.277"/>
	
		<path clip-path="url(#SVGID_2_)" fill="none" stroke="#111111" stroke-width="2" stroke-linecap="round" stroke-linejoin="round" stroke-miterlimit="10" d="
		M10.749,21.389c0.423,2.008,0.129,2.378,1.662,4.288"/>
	
		<line clip-path="url(#SVGID_2_)" fill="none" stroke="#000000" stroke-width="2" stroke-linecap="round" stroke-linejoin="round" stroke-miterlimit="10" x1="39.596" y1="31.889" x2="37.346" y2="29.637"/>
	
		<line clip-path="url(#SVGID_2_)" fill="none" stroke="#000000" stroke-width="2" stroke-linecap="round" stroke-linejoin="round" stroke-miterlimit="10" x1="36.005" y1="35.479" x2="33.754" y2="33.229"/>
	
		<line clip-path="url(#SVGID_2_)" fill="none" stroke="#000000" stroke-width="2" stroke-linecap="round" stroke-linejoin="round" stroke-miterlimit="10" x1="32.438" y1="39.046" x2="30.188" y2="36.794"/>
	
		<path clip-path="url(#SVGID_2_)" fill="none" stroke="#111111" stroke-width="2" stroke-linecap="round" stroke-linejoin="round" stroke-miterlimit="10" d="
		M31.896,16.966l-4.615,4.313c-1.181,1.107-3.035,1.046-4.14-0.133c-1.105-1.18-1.047-3.034,0.134-4.14l7.658-7.178
		c0.249-0.232,0.526-0.413,0.82-0.543"/>
	
		<path clip-path="url(#SVGID_2_)" fill="none" stroke="#111111" stroke-width="2" stroke-linecap="round" stroke-linejoin="round" stroke-miterlimit="10" d="
		M14.231,30.814c-0.933,0.933-2.444,0.933-3.377,0s-0.932-2.444,0-3.376l2.634-2.633c0.93-0.932,2.442-0.933,3.376,0.001
		c0.931,0.931,0.931,2.444,0,3.375L14.231,30.814z"/>
	
		<path clip-path="url(#SVGID_2_)" fill="none" stroke="#111111" stroke-width="2" stroke-linecap="round" stroke-linejoin="round" stroke-miterlimit="10" d="
		M17.607,34.191c-0.931,0.933-2.444,0.933-3.376,0c-0.933-0.933-0.933-2.444,0-3.377l2.633-2.633
		c0.931-0.931,2.443-0.933,3.377,0.001c0.93,0.932,0.93,2.444,0,3.376L17.607,34.191z"/>
	
		<path clip-path="url(#SVGID_2_)" fill="none" stroke="#111111" stroke-width="2" stroke-linecap="round" stroke-linejoin="round" stroke-miterlimit="10" d="
		M20.984,37.569c-0.932,0.931-2.444,0.931-3.376,0c-0.933-0.934-0.932-2.445-0.001-3.378l2.634-2.633
		c0.93-0.932,2.442-0.933,3.376,0.001c0.932,0.932,0.932,2.444,0,3.376L20.984,37.569z"/>
	
		<path clip-path="url(#SVGID_2_)" fill="none" stroke="#111111" stroke-width="2" stroke-linecap="round" stroke-linejoin="round" stroke-miterlimit="10" d="
		M24.36,40.945c-0.931,0.932-2.444,0.932-3.375,0c-0.934-0.934-0.933-2.445-0.001-3.376l2.633-2.634
		c0.932-0.932,2.444-0.932,3.377,0.001c0.931,0.932,0.931,2.444,0,3.376L24.36,40.945z"/>
	
		<path clip-path="url(#SVGID_2_)" fill="none" stroke="#111111" stroke-width="2" stroke-linecap="round" stroke-linejoin="round" stroke-miterlimit="10" d="
		M40.641,25.749c0,0,3.479-3.446,3.384-5.562"/>
</g>
</svg>
