<?xml version="1.0" encoding="utf-8"?>
<!-- Generator: Adobe Illustrator 16.0.0, SVG Export Plug-In . SVG Version: 6.00 Build 0)  -->
<!DOCTYPE svg PUBLIC "-//W3C//DTD SVG 1.1//EN" "http://www.w3.org/Graphics/SVG/1.1/DTD/svg11.dtd">
<svg version="1.1" id="All_glyphs" xmlns="http://www.w3.org/2000/svg" xmlns:xlink="http://www.w3.org/1999/xlink" x="0px" y="0px"
	 width="118.07px" height="90px" viewBox="0 0 118.07 90" enable-background="new 0 0 118.07 90" xml:space="preserve">
<g>
	<g>
		<path fill="#222222" d="M116.844,78.311l-13.062-13.062c1.969-3.235,3.104-7.035,3.104-11.101
			c0-11.811-10.233-22.042-22.044-22.042c-11.809,0-21.384,9.575-21.384,21.385c0,11.811,10.232,22.042,22.042,22.042
			c3.927,0,7.604-1.063,10.767-2.91L109.4,85.756c1.286,1.285,3.369,1.285,4.653,0l3.257-3.256
			C118.594,81.214,118.128,79.596,116.844,78.311z M70.038,53.491c0-8.177,6.628-14.805,14.803-14.805
			c8.178,0,15.464,7.287,15.464,15.462c0,8.178-6.629,14.806-14.806,14.806C77.323,68.954,70.038,61.668,70.038,53.491z"/>
	</g>
	<path fill="#222222" d="M63.457,65.5H10V10h80v15.193h10V11c0-5.5-4.5-10-10-10H10C4.5,1,0,5.5,0,11v55
		c0,5.5,4.412,10.883,9.807,11.961l21.859,4.372c0,0-18.814,6.667-6.666,6.667h38.457V65.5z"/>
	<path fill="#222222" d="M68.454,82.333c0,0,18.813,6.667,6.666,6.667H36.662V65.5"/>
</g>
</svg>
