<?xml version="1.0" encoding="utf-8"?>
<!-- Generator: Adobe Illustrator 16.0.0, SVG Export Plug-In . SVG Version: 6.00 Build 0)  -->
<!DOCTYPE svg PUBLIC "-//W3C//DTD SVG 1.1//EN" "http://www.w3.org/Graphics/SVG/1.1/DTD/svg11.dtd">
<svg version="1.1" id="All_glyphs" xmlns="http://www.w3.org/2000/svg" xmlns:xlink="http://www.w3.org/1999/xlink" x="0px" y="0px"
	 width="118.07px" height="90px" viewBox="0 0 118.07 90" enable-background="new 0 0 118.07 90" xml:space="preserve">
<g>
	<path fill="#222222" d="M109.035,89c0,0-0.197-18.934-1.354-20.896c-1.721-2.922-5.729-4.932-13.17-8.041
		c-7.416-3.101-9.787-5.715-9.787-11.315c0-3.364,2.264-2.265,3.26-8.419c0.412-2.555,2.412-0.043,2.795-5.872
		c0-2.324-1.092-2.903-1.092-2.903s0.556-3.437,0.771-6.084c0.27-3.298-1.662-11.815-11.955-11.815
		c-10.295,0-12.226,8.518-11.955,11.815c0.217,2.647,0.77,6.084,0.77,6.084s-1.09,0.579-1.09,2.903
		c0.383,5.829,2.381,3.317,2.795,5.872c0.994,6.154,3.261,5.056,3.261,8.419c0,3.808-1.103,6.235-4.138,8.375
		c16.203,8.11,18.375,9.764,18.375,17.015V89H109.035z M60.152,62.877c-9.891-4.134-13.051-7.621-13.051-15.086
		c0-4.483,3.021-3.019,4.346-11.228c0.55-3.404,3.218-0.056,3.728-7.829c0-3.098-1.455-3.868-1.455-3.868s0.74-4.583,1.029-8.112
		C55.107,12.357,52.533,1,38.807,1C25.082,1,22.506,12.357,22.867,16.754c0.288,3.529,1.026,8.112,1.026,8.112
		s-1.455,0.77-1.455,3.868c0.513,7.773,3.179,4.425,3.729,7.829c1.326,8.208,4.346,6.744,4.346,11.228
		c0,7.465-3.162,10.952-13.051,15.086c-3.014,1.26-8.428,3.211-8.428,7.906V89h69.469c0,0,0-10.775,0-13.659
		C78.504,71.059,70.072,67.025,60.152,62.877z"/>
</g>
</svg>
