<?xml version="1.0" encoding="utf-8"?>
<!-- Generator: Adobe Illustrator 16.0.0, SVG Export Plug-In . SVG Version: 6.00 Build 0)  -->
<!DOCTYPE svg PUBLIC "-//W3C//DTD SVG 1.1//EN" "http://www.w3.org/Graphics/SVG/1.1/DTD/svg11.dtd">
<svg version="1.1" id="All_glyphs" xmlns="http://www.w3.org/2000/svg" xmlns:xlink="http://www.w3.org/1999/xlink" x="0px" y="0px"
	 width="118.07px" height="90px" viewBox="0 0 118.07 90" enable-background="new 0 0 118.07 90" xml:space="preserve">
<g>
	<path fill="#222222" d="M48.037,56.352L28.033,48.35v6.771l20.004,8.002V56.352z M48.037,35.582l-20.004-8.001v6.77l20.004,8.001
		V35.582z M101.838,0.859c-1.373-0.93-3.119-1.118-4.66-0.502L59.035,15.615L20.891,0.357c-1.541-0.616-3.285-0.428-4.66,0.502
		C14.857,1.789,14.035,3.34,14.035,5v64c0,2.045,1.243,3.883,3.141,4.643l39.916,15.965c0,0,0.818,0.265,0.973,0.295
		C58.385,89.965,58.709,90,59.035,90c0.323,0,0.647-0.035,0.971-0.098c0.152-0.031,0.975-0.297,0.975-0.297l39.912-15.963
		c1.898-0.761,3.144-2.599,3.144-4.644V5C104.035,3.34,103.211,1.789,101.838,0.859z M54.035,79.77l-32-12.799v-56.04l32,12.802
		V79.77z M96.035,66.971l-32,12.799V23.732l32-12.802V66.971z M90.037,48.35l-20.004,8.002v6.771l20.004-8.002V48.35z
		 M90.037,27.581l-20.004,8.001v6.77l20.004-8.001V27.581z"/>
</g>
</svg>
