<?xml version="1.0" encoding="utf-8"?>
<!-- Generator: Adobe Illustrator 16.0.0, SVG Export Plug-In . SVG Version: 6.00 Build 0)  -->
<!DOCTYPE svg PUBLIC "-//W3C//DTD SVG 1.1//EN" "http://www.w3.org/Graphics/SVG/1.1/DTD/svg11.dtd">
<svg version="1.1" id="All_glyphs" xmlns="http://www.w3.org/2000/svg" xmlns:xlink="http://www.w3.org/1999/xlink" x="0px" y="0px"
	 width="118.07px" height="90px" viewBox="0 0 118.07 90" enable-background="new 0 0 118.07 90" xml:space="preserve">
<g>
	<path fill="#4E4E4E" d="M93.875,20c0-5-4.978-5-4.978-5H29.172c0,0-4.978,0-4.978,5v5h69.681V20z M78.944,5H39.125
		c0,0-4.978,0-4.978,5H83.92C83.92,5,78.944,5,78.944,5z M103.829,25c-2.945-2.959-2.945-2.959-2.945-2.959V30H17.186v-7.959
		c0,0,0,0-2.944,2.959c-2.945,2.959-5.056,3.754-3.869,10.004c1.18,6.226,6.891,40.375,7.739,44.997
		C19.043,85.066,24.196,85,24.196,85h69.681c0,0,5.149,0.066,6.082-4.999c0.85-4.622,6.561-38.771,7.742-44.997
		C108.885,28.754,106.774,27.959,103.829,25z M78.942,52c0,0,0,5-4.977,5H44.104c-4.977,0-4.977-5-4.977-5V42h6.969v8h25.865v-8
		h6.979L78.942,52L78.942,52z"/>
</g>
</svg>
