<?xml version="1.0" encoding="utf-8"?>
<!-- Generator: Adobe Illustrator 16.0.0, SVG Export Plug-In . SVG Version: 6.00 Build 0)  -->
<!DOCTYPE svg PUBLIC "-//W3C//DTD SVG 1.1//EN" "http://www.w3.org/Graphics/SVG/1.1/DTD/svg11.dtd">
<svg version="1.1" id="Layer_1" xmlns="http://www.w3.org/2000/svg" xmlns:xlink="http://www.w3.org/1999/xlink" x="0px" y="0px"
	 width="15.125px" height="18.15px" viewBox="0 0 15.125 18.15" enable-background="new 0 0 15.125 18.15" xml:space="preserve">
<g>
	<defs>
		<rect id="SVGID_1_" width="15.125" height="18.15"/>
	</defs>
	<clipPath id="SVGID_2_">
		<use xlink:href="#SVGID_1_"  overflow="visible"/>
	</clipPath>
	<path clip-path="url(#SVGID_2_)" fill="#FFFFFF" d="M0.756,18.151h13.613V4.538H0.756V18.151z M4.538,15.125
		c0,0.418-0.339,0.757-0.757,0.757c-0.417,0-0.756-0.339-0.756-0.757V7.563c0-0.418,0.339-0.756,0.756-0.756
		c0.418,0,0.757,0.338,0.757,0.756V15.125z M8.319,15.125c0,0.418-0.339,0.757-0.756,0.757c-0.419,0-0.757-0.339-0.757-0.757V7.563
		c0-0.418,0.338-0.756,0.757-0.756c0.417,0,0.756,0.338,0.756,0.756V15.125z M12.1,15.125c0,0.418-0.339,0.757-0.756,0.757
		s-0.756-0.339-0.756-0.757V7.563c0-0.418,0.339-0.756,0.756-0.756S12.1,7.145,12.1,7.563V15.125z M15.125,1.512v1.513H0V1.512
		h4.319C5,1.512,5.552,0.682,5.552,0h4.021c0,0.682,0.552,1.513,1.233,1.513H15.125z"/>
</g>
<text transform="matrix(1 0 0 1 297.6406 420.9448)" font-family="'AdobeMyungjoStd-Medium-KSCpc-EUC-H'" font-size="12">overflow:hidden;</text>
<text transform="matrix(1 0 0 1 297.6406 420.9448)" font-family="'AdobeMyungjoStd-Medium-KSCpc-EUC-H'" font-size="12">overflow:hidden;</text>
<text transform="matrix(1 0 0 1 297.6406 420.9448)" font-family="'AdobeMyungjoStd-Medium-KSCpc-EUC-H'" font-size="12">overflow:hidden;</text>
</svg>
