<?xml version="1.0" encoding="utf-8"?>
<!-- Generator: Adobe Illustrator 16.0.0, SVG Export Plug-In . SVG Version: 6.00 Build 0)  -->
<!DOCTYPE svg PUBLIC "-//W3C//DTD SVG 1.1//EN" "http://www.w3.org/Graphics/SVG/1.1/DTD/svg11.dtd">
<svg version="1.1" id="Layer_1" xmlns="http://www.w3.org/2000/svg" xmlns:xlink="http://www.w3.org/1999/xlink" x="0px" y="0px"
	 width="455.695px" height="512px" viewBox="0 0 455.695 512" enable-background="new 0 0 455.695 512" xml:space="preserve">
<g>
	<defs>
		<rect id="SVGID_1_" width="455.695" height="512"/>
	</defs>
	<clipPath id="SVGID_2_">
		<use xlink:href="#SVGID_1_"  overflow="visible"/>
	</clipPath>
	<path clip-path="url(#SVGID_2_)" fill="#FD7013" d="M105.516,418.21h270.218l0.008-413.406l-55.787,26.061L253.865,0
		l-66.029,30.866L121.763,0L55.725,30.866L0,4.804v439.147c0.018,18.392,6.602,33.063,16.469,43.83
		c9.867,10.748,23.134,17.357,36.08,18.827c1.166,0.133,2.322,0.195,3.479,0.195c5.668,0,11.407-1.557,17.038-4.796
		c5.624-3.213,11.122-8.133,15.927-14.753c9.636-13.239,16.523-33.25,16.523-58.741V418.21z M62.541,133.125H314.75v30.883H62.541
		V133.125z M62.541,224.725H314.75V255.6H62.541V224.725z M62.541,316.298h130.955v30.894H62.541V316.298z"/>
	<path clip-path="url(#SVGID_2_)" fill="#FD7013" d="M126.754,443.96c-1.156,17.599-5.232,33.196-11.549,46.24
		c-4.012,8.284-8.951,15.535-14.583,21.63h303.201l0.472,0.045c0.907,0.08,1.824,0.125,2.724,0.125
		c5.613-0.009,11.29-1.566,16.886-4.805c5.571-3.238,11.016-8.177,15.811-14.823c8.24-11.416,14.415-27.885,15.979-48.412H126.754z"
		/>
</g>
</svg>
