<?xml version="1.0" encoding="utf-8"?>
<!-- Generator: Adobe Illustrator 16.0.0, SVG Export Plug-In . SVG Version: 6.00 Build 0)  -->
<!DOCTYPE svg PUBLIC "-//W3C//DTD SVG 1.1//EN" "http://www.w3.org/Graphics/SVG/1.1/DTD/svg11.dtd">
<svg version="1.1" id="Layer_1" xmlns="http://www.w3.org/2000/svg" xmlns:xlink="http://www.w3.org/1999/xlink" x="0px" y="0px"
	 width="20px" height="20px" viewBox="0 0 20 20" enable-background="new 0 0 20 20" xml:space="preserve">
<g>
	<path fill="#EEEEEE" d="M7.768,12.301l-4.057-1.623v1.374l4.057,1.621V12.301z M7.768,8.089L3.711,6.467V7.84l4.057,1.621V8.089z
		 M18.676,1.049c-0.277-0.188-0.631-0.227-0.943-0.104L9.999,4.042L2.263,0.946C1.951,0.823,1.597,0.86,1.32,1.049
		c-0.279,0.188-0.445,0.502-0.445,0.84v12.979c0,0.414,0.252,0.785,0.637,0.94l8.094,3.235c0,0,0.166,0.056,0.197,0.062
		c0.064,0.013,0.131,0.021,0.197,0.021c0.064,0,0.131-0.008,0.195-0.021c0.03-0.008,0.198-0.062,0.198-0.062l8.093-3.235
		c0.385-0.155,0.639-0.528,0.639-0.942V1.889C19.121,1.551,18.955,1.237,18.676,1.049z M8.982,17.049l-6.486-2.596V3.091
		l6.486,2.595V17.049z M17.501,14.454l-6.488,2.596V5.686l6.488-2.595V14.454z M16.283,10.678l-4.055,1.623v1.372l4.055-1.621
		V10.678z M16.283,6.467l-4.055,1.622v1.372l4.055-1.621V6.467z"/>
</g>
</svg>
