<?xml version="1.0" encoding="utf-8"?>
<!-- Generator: Adobe Illustrator 16.0.0, SVG Export Plug-In . SVG Version: 6.00 Build 0)  -->
<!DOCTYPE svg PUBLIC "-//W3C//DTD SVG 1.1//EN" "http://www.w3.org/Graphics/SVG/1.1/DTD/svg11.dtd">
<svg version="1.1" id="Layer_1" xmlns="http://www.w3.org/2000/svg" xmlns:xlink="http://www.w3.org/1999/xlink" x="0px" y="0px"
	 width="20px" height="20px" viewBox="0 0 20 20" enable-background="new 0 0 20 20" xml:space="preserve">
<path fill="#EEEEEE" d="M18,1.333V16H2V1.333h1.998v0.666c0,0.737,0.6,1.335,1.335,1.335s1.333-0.598,1.333-1.335V1.333h6.667v0.666
	c0,0.737,0.599,1.335,1.332,1.335c0.735,0,1.336-0.598,1.336-1.335V1.333H18z M16.665,5.333H3.331v9.333h13.334V5.333z
	 M15.331,0.667C15.331,0.299,15.035,0,14.665,0c-0.369,0-0.666,0.299-0.666,0.667V2c0,0.37,0.297,0.668,0.666,0.668
	c0.37,0,0.666-0.298,0.666-0.668V0.667z M5.999,1.999c0,0.37-0.297,0.668-0.666,0.668c-0.37,0-0.668-0.298-0.668-0.668V0.667
	C4.665,0.299,4.963,0,5.333,0c0.369,0,0.666,0.299,0.666,0.667V1.999z M6.666,9.82l0.57-0.527c0.666,0.322,1.09,0.568,1.84,1.102
	c1.409-1.601,2.339-2.411,4.07-3.488l0.188,0.426c-1.428,1.246-2.473,2.632-3.978,5.332C8.426,11.575,7.806,10.877,6.666,9.82"/>
</svg>
