<?xml version="1.0" encoding="utf-8"?>
<!-- Generator: Adobe Illustrator 16.0.0, SVG Export Plug-In . SVG Version: 6.00 Build 0)  -->
<!DOCTYPE svg PUBLIC "-//W3C//DTD SVG 1.1//EN" "http://www.w3.org/Graphics/SVG/1.1/DTD/svg11.dtd">
<svg version="1.1" id="Layer_1" xmlns="http://www.w3.org/2000/svg" xmlns:xlink="http://www.w3.org/1999/xlink" x="0px" y="0px"
	 width="20px" height="19.999px" viewBox="34.282 30.757 20 19.999" enable-background="new 34.282 30.757 20 19.999"
	 xml:space="preserve">
<path fill="#4E4E4E" d="M36.815,38.683h-1.659v9.125c0,0.921,0.739,1.659,1.659,1.659h11.614c0.921,0,1.659-0.738,1.659-1.659
	H36.815V38.683z M49.259,35.365v-1.659c0-0.921-0.739-1.659-1.659-1.659h-3.319c-0.92,0-1.659,0.738-1.659,1.659v1.659h-4.147v9.125
	c0,0.921,0.738,1.659,1.659,1.659h11.614c0.92,0,1.659-0.738,1.659-1.659v-9.125H49.259z M44.281,33.706H47.6v1.659h-3.319V33.706z"
	/>
</svg>
