<?xml version="1.0" encoding="utf-8"?>
<!-- Generator: Adobe Illustrator 16.0.0, SVG Export Plug-In . SVG Version: 6.00 Build 0)  -->
<!DOCTYPE svg PUBLIC "-//W3C//DTD SVG 1.1//EN" "http://www.w3.org/Graphics/SVG/1.1/DTD/svg11.dtd">
<svg version="1.1" id="Layer_1" xmlns="http://www.w3.org/2000/svg" xmlns:xlink="http://www.w3.org/1999/xlink" x="0px" y="0px"
	 width="20px" height="20px" viewBox="0 0 20 20" enable-background="new 0 0 20 20" xml:space="preserve">
<g>
	<path fill="#222222" d="M18.669,3.804H8.52c-0.252,0-0.453,0.215-0.453,0.479v7.151c0,0.267,0.201,0.479,0.453,0.479h10.15
		c0.25,0,0.453-0.215,0.453-0.479V4.284C19.124,4.019,18.921,3.804,18.669,3.804z"/>
	<path fill="#222222" d="M4.535,13.506c-0.7,0-1.271,0.602-1.271,1.345c0,0.742,0.57,1.345,1.271,1.345
		c0.703,0,1.271-0.603,1.271-1.345C5.807,14.108,5.238,13.506,4.535,13.506"/>
	<path fill="#222222" d="M18.744,12.479H7.91c-0.209,0-0.377-0.179-0.377-0.398V6.116c0-0.221-0.17-0.398-0.379-0.398h-3.44
		c-0.11,0-0.218,0.053-0.289,0.143L0.962,8.989c-0.058,0.07-0.088,0.162-0.088,0.254v2.744v1.434c0,0.222,0.168,0.4,0.377,0.4h1.897
		c0.307-0.461,0.814-0.765,1.387-0.765c0.574,0,1.08,0.304,1.39,0.765h7.748c0.31-0.461,0.813-0.765,1.387-0.765
		c0.574,0,1.08,0.304,1.39,0.765h2.297c0.209,0,0.379-0.181,0.379-0.4v-0.54C19.124,12.659,18.953,12.479,18.744,12.479 M2.253,9.56
		V9.284c0-0.095,0.028-0.187,0.086-0.26l1.573-2.049c0.074-0.098,0.187-0.152,0.302-0.152h1.543c0.215,0,0.39,0.186,0.39,0.412V9.56
		c0,0.228-0.175,0.411-0.39,0.411H2.642C2.426,9.971,2.253,9.788,2.253,9.56"/>
	<path fill="#222222" d="M15.059,13.506c-0.701,0-1.271,0.602-1.271,1.345c0,0.742,0.57,1.345,1.271,1.345
		c0.703,0,1.271-0.603,1.271-1.345C16.33,14.108,15.762,13.506,15.059,13.506"/>
</g>
</svg>
