<?xml version="1.0" encoding="utf-8"?>
<!-- Generator: Adobe Illustrator 16.0.0, SVG Export Plug-In . SVG Version: 6.00 Build 0)  -->
<!DOCTYPE svg PUBLIC "-//W3C//DTD SVG 1.1//EN" "http://www.w3.org/Graphics/SVG/1.1/DTD/svg11.dtd">
<svg version="1.1" id="Layer_1" xmlns="http://www.w3.org/2000/svg" xmlns:xlink="http://www.w3.org/1999/xlink" x="0px" y="0px"
	 width="107.183px" height="130.24px" viewBox="0 0 107.183 130.24" enable-background="new 0 0 107.183 130.24"
	 xml:space="preserve">
<g>
	<defs>
		<rect id="SVGID_1_" width="107.183" height="130.24"/>
	</defs>
	<clipPath id="SVGID_2_">
		<use xlink:href="#SVGID_1_"  overflow="visible"/>
	</clipPath>
	<path clip-path="url(#SVGID_2_)" fill="#88BB49" d="M105.683,106.575c0,12.242-9.926,22.164-22.166,22.164
		c-12.242,0-22.168-9.922-22.168-22.164c0-12.244,9.926-22.167,22.168-22.167C95.757,84.408,105.683,94.331,105.683,106.575"/>
	<path clip-path="url(#SVGID_2_)" fill="none" stroke="#111111" stroke-width="3" stroke-miterlimit="10" d="M105.683,106.575
		c0,12.242-9.926,22.164-22.166,22.164c-12.242,0-22.168-9.922-22.168-22.164c0-12.244,9.926-22.167,22.168-22.167
		C95.757,84.408,105.683,94.331,105.683,106.575z"/>
	<path clip-path="url(#SVGID_2_)" fill="#111111" d="M80.901,113.662c-0.384,0-0.769-0.146-1.061-0.439l-7.106-7.103
		c-0.586-0.586-0.586-1.535,0-2.121s1.535-0.586,2.121,0l6.089,6.085l12.106-11.143c0.609-0.56,1.558-0.521,2.12,0.088
		c0.561,0.61,0.521,1.56-0.088,2.119l-13.165,12.117C81.631,113.529,81.266,113.662,80.901,113.662"/>
	<path clip-path="url(#SVGID_2_)" fill="#111111" d="M62.205,86.519c-0.314,0-0.634-0.101-0.904-0.306
		c-5.887-4.462-7.806-9.216-7.658-11.322c0.042-0.62,0.198-1.993,0.198-1.993l2.98,0.343c-0.001,0.005-0.147,1.279-0.187,1.855
		c-0.067,0.97,1.343,4.835,6.478,8.728c0.66,0.5,0.79,1.44,0.289,2.101C63.106,86.313,62.658,86.519,62.205,86.519"/>
	<path clip-path="url(#SVGID_2_)" fill="#111111" d="M48.154,75.001c-20.678,0-37.5-16.822-37.5-37.5
		c0-20.678,16.822-37.5,37.5-37.5s37.5,16.822,37.5,37.5C85.653,58.179,68.832,75.001,48.154,75.001 M48.154,3
		c-19.023,0-34.5,15.477-34.5,34.5s15.477,34.5,34.5,34.5c19.023,0,34.5-15.478,34.5-34.5S67.177,3,48.154,3"/>
	<path clip-path="url(#SVGID_2_)" fill="#111111" d="M35.404,35.75c0-2.071-1.679-3.75-3.75-3.75c-2.071,0-3.75,1.679-3.75,3.75
		c0,2.071,1.679,3.75,3.75,3.75C33.725,39.5,35.404,37.822,35.404,35.75"/>
	<path clip-path="url(#SVGID_2_)" fill="#111111" d="M68.403,35.75c0-2.071-1.679-3.75-3.75-3.75c-2.07,0-3.75,1.679-3.75,3.75
		c0,2.071,1.68,3.75,3.75,3.75C66.725,39.5,68.403,37.822,68.403,35.75"/>
	<path clip-path="url(#SVGID_2_)" fill="#111111" d="M48.138,57.5c-3.274,0-6.251-1.324-7.964-3.541
		c-0.506-0.656-0.385-1.598,0.271-2.104c0.655-0.506,1.597-0.386,2.104,0.27c1.131,1.465,3.273,2.375,5.589,2.375
		c2.337,0,4.487-0.922,5.612-2.406c0.501-0.66,1.442-0.79,2.102-0.289c0.66,0.5,0.79,1.441,0.289,2.101
		C54.435,56.157,51.444,57.5,48.138,57.5"/>
	<path clip-path="url(#SVGID_2_)" fill="#111111" d="M13.654,30c0,0,38-1,45-26l-20-2c0,0-9.679,5.117-17,13
		C17.528,19.442,14.2,25.955,13.654,30"/>
	<path clip-path="url(#SVGID_2_)" fill="#111111" d="M80.153,24.274c0,0-26.484,2.226-33.485-22.774L61.49,4.691
		C61.49,4.691,78.639,13.047,80.153,24.274"/>
	<path clip-path="url(#SVGID_2_)" fill="#111111" d="M3.072,119.001c1.071-4.957,5.467-19.664,20.802-26.681
		c20.081-9.186,18.328-17.716,18.061-18.659c-0.219-0.78-1.012-1.226-1.804-1.025c-0.788,0.199-1.269,1.009-1.093,1.802
		c0.015,0.069,1.338,7.035-16.412,15.155C5.248,97.545,0.912,114.172,0,119.001H3.072z"/>
</g>
</svg>
