<?xml version="1.0" encoding="UTF-8"?>
<svg width="25px" height="25px" viewBox="0 0 25 25" version="1.1" xmlns="http://www.w3.org/2000/svg" xmlns:xlink="http://www.w3.org/1999/xlink">
    <!-- Generator: Sketch 50.2 (55047) - http://www.bohemiancoding.com/sketch -->
    <title>i_eraser</title>
    <desc>Created with Sketch.</desc>
    <defs>
        <path d="M12.3379575,17.5044 L13.1310468,16.7111959 L8.4682126,12.0491874 L5.223,15.2944 L7.433,17.5044 L12.3379575,17.5044 Z M12.706217,19.5044 L7.04140056,19.5044 C6.83811911,19.508938 6.6337258,19.451695 6.45849432,19.3326709 C6.39907633,19.2925066 6.34425726,19.2460529 6.29492295,19.194323 L3.427,16.3264 C2.857,15.7574 2.857,14.8314 3.427,14.2624 L7.737073,9.952327 C7.74494227,9.9438803 7.75298461,9.93553646 7.7612,9.9273 C7.76943646,9.91908461 7.7777803,9.91104227 7.786227,9.903173 L13.263,4.4264 C13.833,3.8584 14.758,3.8584 15.327,4.4264 L20.753,9.8524 C21.029,10.1274 21.181,10.4944 21.181,10.8844 C21.181,11.2754 21.029,11.6424 20.752,11.9174 L15.1657659,17.5044 L20.3906,17.5044 C20.9426,17.5044 21.3906,17.9524 21.3906,18.5044 C21.3906,19.0564 20.9426,19.5044 20.3906,19.5044 L12.795783,19.5044 C12.7808634,19.5050666 12.7659317,19.5054 12.751,19.5054 C12.7360683,19.5054 12.7211366,19.5050666 12.706217,19.5044 Z M14.5449937,15.2970446 L18.957,10.8844 L14.295,6.2224 L9.8830874,10.6343126 L14.5449937,15.2970446 Z" id="path-1"></path>
    </defs>
    <g id="i_eraser" stroke="none" stroke-width="1" fill="none" fill-rule="evenodd">
        <mask id="mask-2" fill="white">
            <use xlink:href="#path-1"></use>
        </mask>
        <use id="Mask" fill="#231F20" xlink:href="#path-1"></use>
        <g id="color/white" mask="url(#mask-2)" fill="#FFFFFF">
            <rect id="Rectangle" x="0" y="0" width="23.04" height="23.04"></rect>
        </g>
    </g>
</svg>