<?xml version="1.0" encoding="UTF-8"?>
<svg width="25px" height="25px" viewBox="0 0 25 25" version="1.1" xmlns="http://www.w3.org/2000/svg" xmlns:xlink="http://www.w3.org/1999/xlink">
    <!-- Generator: Sketch 50.2 (55047) - http://www.bohemiancoding.com/sketch -->
    <title>i_pen</title>
    <desc>Created with Sketch.</desc>
    <defs>
        <path d="M13.1875,6.0615 L16.4265,9.3005 L9.2045,17.4755 L6.0005,17.4755 L6.0005,14.1995 L13.1875,6.0615 Z M18.3715,17.4755 L11.8725,17.4755 L17.9415,10.6035 C18.6625,9.8815 18.6625,8.7075 17.9405,7.9865 L14.4895,4.5345 C13.7695,3.8145 12.5955,3.8135 11.8305,4.5805 L4.2505,13.1595 C4.0895,13.3415 4.0005,13.5775 4.0005,13.8215 L3.9995,18.4755 C3.9995,19.0275 4.4475,19.4755 4.9995,19.4755 L18.3715,19.4755 C18.9235,19.4755 19.3715,19.0275 19.3715,18.4755 C19.3715,17.9235 18.9235,17.4755 18.3715,17.4755 Z" id="path-1"></path>
    </defs>
    <g id="i_pen" stroke="none" stroke-width="1" fill="none" fill-rule="evenodd">
        <mask id="mask-2" fill="white">
            <use xlink:href="#path-1"></use>
        </mask>
        <use id="Mask" fill="#231F20" xlink:href="#path-1"></use>
        <g id="color/white" mask="url(#mask-2)" fill="#FFFFFF">
            <rect id="Rectangle" x="0" y="0" width="23.04" height="23.04"></rect>
        </g>
    </g>
</svg>