<?xml version="1.0" standalone="no"?>
<!DOCTYPE svg PUBLIC "-//W3C//DTD SVG 20010904//EN"
 "http://www.w3.org/TR/2001/REC-SVG-20010904/DTD/svg10.dtd">
<svg version="1.0" xmlns="http://www.w3.org/2000/svg"
 width="70.000000pt" height="70.000000pt" viewBox="0 0 70.000000 70.000000"
 preserveAspectRatio="xMidYMid meet">

<g transform="translate(0.000000,70.000000) scale(0.100000,-0.100000)"
fill="#fff" stroke="none">
<path d="M317 612 c-14 -15 -17 -42 -17 -150 l0 -131 -42 19 c-24 11 -55 20
-69 20 -33 0 -62 -31 -61 -67 0 -29 21 -51 97 -95 36 -22 51 -39 70 -82 13
-29 31 -56 40 -60 26 -10 204 -7 224 4 10 5 22 25 25 44 4 20 18 60 32 90 29
64 34 144 11 180 -19 28 -98 76 -126 76 -11 0 -23 5 -26 10 -3 6 -15 10 -26
10 -17 0 -19 7 -19 58 0 44 -5 63 -18 75 -25 22 -75 21 -95 -1z m71 -24 c7 -7
12 -39 12 -75 0 -60 1 -63 24 -63 14 0 28 -4 31 -10 3 -5 17 -10 30 -10 28 0
110 -52 119 -76 12 -31 5 -70 -21 -124 -14 -30 -29 -73 -32 -95 l-6 -40 -96
-3 -95 -3 -23 57 c-19 45 -33 62 -70 85 -77 47 -91 59 -91 79 0 29 35 34 78
10 72 -41 77 -34 80 119 1 79 7 140 14 148 13 16 30 17 46 1z"/>
<path d="M150 595 c0 -10 10 -15 27 -15 26 0 25 -3 -32 -60 -60 -61 -60 -61
-65 -33 -8 45 -25 27 -28 -32 l-3 -56 56 3 c59 3 80 21 31 26 l-29 4 59 59 59
60 5 -28 c8 -46 25 -27 28 32 l3 55 -56 0 c-42 0 -55 -3 -55 -15z"/>
</g>
</svg>
