<?xml version="1.0" encoding="utf-8"?>
<!-- Generator: Adobe Illustrator 16.0.0, SVG Export Plug-In . SVG Version: 6.00 Build 0)  -->
<!DOCTYPE svg PUBLIC "-//W3C//DTD SVG 1.1//EN" "http://www.w3.org/Graphics/SVG/1.1/DTD/svg11.dtd">
<svg version="1.1" id="Layer_1" xmlns="http://www.w3.org/2000/svg" xmlns:xlink="http://www.w3.org/1999/xlink" x="0px" y="0px"
	 width="19.083px" height="19.083px" viewBox="0 0 19.083 19.083" enable-background="new 0 0 19.083 19.083" xml:space="preserve">
<g>
	<defs>
		<rect id="SVGID_1_" y="0" width="19.083" height="19.083"/>
	</defs>
	<clipPath id="SVGID_2_">
		<use xlink:href="#SVGID_1_"  overflow="visible"/>
	</clipPath>
	<path clip-path="url(#SVGID_2_)" fill="#BBBBBB" d="M19.083,1.59v17.493H0V1.59h2.385v0.795c0,0.877,0.714,1.591,1.591,1.591
		s1.59-0.714,1.59-1.591V1.59h7.952v0.795c0,0.877,0.713,1.591,1.59,1.591s1.591-0.714,1.591-1.591V1.59H19.083z M17.493,6.361H1.59
		v11.132h15.903V6.361z M15.902,0.795C15.902,0.356,15.547,0,15.107,0s-0.795,0.356-0.795,0.795v1.59
		c0,0.439,0.355,0.795,0.795,0.795s0.795-0.356,0.795-0.795V0.795z M4.771,2.385c0,0.439-0.355,0.795-0.795,0.795
		S3.181,2.824,3.181,2.385v-1.59C3.181,0.356,3.536,0,3.976,0s0.795,0.356,0.795,0.795V2.385z M5.566,11.711l0.68-0.629
		c0.795,0.385,1.3,0.678,2.195,1.315c1.68-1.908,2.791-2.875,4.855-4.16l0.222,0.509c-1.703,1.486-2.949,3.14-4.745,6.359
		C7.665,13.804,6.926,12.972,5.566,11.711"/>
</g>
</svg>
