<?xml version="1.0" encoding="utf-8"?>
<!-- Generator: Adobe Illustrator 16.0.0, SVG Export Plug-In . SVG Version: 6.00 Build 0)  -->
<!DOCTYPE svg PUBLIC "-//W3C//DTD SVG 1.1//EN" "http://www.w3.org/Graphics/SVG/1.1/DTD/svg11.dtd">
<svg version="1.1" id="Layer_1" xmlns="http://www.w3.org/2000/svg" xmlns:xlink="http://www.w3.org/1999/xlink" x="0px" y="0px"
	 width="24px" height="20px" viewBox="0 0 24 20" enable-background="new 0 0 24 20" xml:space="preserve">
<g>
	<defs>
		<rect id="SVGID_1_" width="24" height="20"/>
	</defs>
	<clipPath id="SVGID_2_">
		<use xlink:href="#SVGID_1_"  overflow="visible"/>
	</clipPath>
	<path clip-path="url(#SVGID_2_)" fill-rule="evenodd" clip-rule="evenodd" fill="#BBBBBB" d="M2,9.741C0.779,8.732,0,7.206,0,5.5
		C0,2.464,2.464,0,5.5,0c1.706,0,3.232,0.779,4.241,2H14c0.552,0,1,0.448,1,1v2h4.667c1.117,0,1.6,0.576,1.936,1.107
		c0.595,0.94,1.536,2.432,2.109,3.378C23.9,9.797,24,10.155,24,10.52V15c0,1.156-0.616,2-2,2h-1c0,1.656-1.344,3-3,3s-3-1.344-3-3
		h-4c0,1.656-1.344,3-3,3s-3-1.344-3-3H3c-0.552,0-1-0.448-1-1V9.741z M8,15.8c0.662,0,1.2,0.538,1.2,1.2S8.662,18.2,8,18.2
		S6.8,17.662,6.8,17S7.338,15.8,8,15.8 M18,15.8c0.662,0,1.2,0.538,1.2,1.2s-0.538,1.2-1.2,1.2s-1.2-0.538-1.2-1.2
		S17.338,15.8,18,15.8 M10.793,4C10.928,4.477,11,4.98,11,5.5C11,8.536,8.536,11,5.5,11c-0.52,0-1.023-0.072-1.5-0.207V15h1.765
		C6.314,14.386,7.112,14,8,14s1.686,0.386,2.235,1h5.53c0.55-0.614,1.348-1,2.235-1s1.686,0.386,2.235,1H22v-4.575
		c0,0-1.156-1.98-1.711-2.929C20.11,7.189,19.781,7,19.426,7H15v6h-2V4H10.793z M16,8v3h5c0,0-0.938-1.642-1.427-2.496
		C19.395,8.192,19.064,8,18.705,8H16z M5.5,2C7.432,2,9,3.568,9,5.5S7.432,9,5.5,9S2,7.432,2,5.5S3.568,2,5.5,2 M6,5h2v1H5V3h1V5z"
		/>
</g>
</svg>
